<svg width="20" height="20" viewBox="0 0 20 20" fill="none" xmlns="http://www.w3.org/2000/svg">
<path d="M14.1719 1.66675H5.83854C3.53736 1.66675 1.67188 3.53223 1.67188 5.83341V14.1667C1.67188 16.4679 3.53736 18.3334 5.83854 18.3334H14.1719C16.4731 18.3334 18.3385 16.4679 18.3385 14.1667V5.83341C18.3385 3.53223 16.4731 1.66675 14.1719 1.66675Z" stroke="white" stroke-width="1.66667" stroke-linecap="round" stroke-linejoin="round"/>
<path d="M13.3386 9.47501C13.4415 10.1685 13.323 10.8769 13.0001 11.4992C12.6772 12.1215 12.1662 12.6262 11.54 12.9414C10.9137 13.2566 10.204 13.3663 9.51178 13.255C8.81956 13.1436 8.18009 12.8167 7.68432 12.321C7.18855 11.8252 6.86173 11.1857 6.75035 10.4935C6.63896 9.8013 6.74868 9.09159 7.0639 8.46532C7.37911 7.83905 7.88378 7.32812 8.50611 7.00521C9.12844 6.68229 9.83675 6.56383 10.5303 6.66667C11.2377 6.77158 11.8927 7.10123 12.3984 7.60693C12.9041 8.11263 13.2337 8.76757 13.3386 9.47501Z" stroke="white" stroke-width="1.66667" stroke-linecap="round" stroke-linejoin="round"/>
<path d="M14.5879 5.41675H14.5962" stroke="white" stroke-width="1.66667" stroke-linecap="round" stroke-linejoin="round"/>
</svg>
