<svg width="20" height="20" viewBox="0 0 20 20" fill="none" xmlns="http://www.w3.org/2000/svg">
<path d="M13.3379 6.66675C14.664 6.66675 15.9357 7.19353 16.8734 8.13121C17.8111 9.0689 18.3379 10.3407 18.3379 11.6667V17.5001H15.0046V11.6667C15.0046 11.2247 14.829 10.8008 14.5164 10.4882C14.2038 10.1757 13.7799 10.0001 13.3379 10.0001C12.8959 10.0001 12.4719 10.1757 12.1594 10.4882C11.8468 10.8008 11.6712 11.2247 11.6712 11.6667V17.5001H8.33789V11.6667C8.33789 10.3407 8.86467 9.0689 9.80236 8.13121C10.74 7.19353 12.0118 6.66675 13.3379 6.66675Z" stroke="white" stroke-width="1.66667" stroke-linecap="round" stroke-linejoin="round"/>
<path d="M5.00521 7.5H1.67188V17.5H5.00521V7.5Z" stroke="white" stroke-width="1.66667" stroke-linecap="round" stroke-linejoin="round"/>
<path d="M3.33854 5.00008C4.25902 5.00008 5.00521 4.25389 5.00521 3.33341C5.00521 2.41294 4.25902 1.66675 3.33854 1.66675C2.41807 1.66675 1.67188 2.41294 1.67188 3.33341C1.67188 4.25389 2.41807 5.00008 3.33854 5.00008Z" stroke="white" stroke-width="1.66667" stroke-linecap="round" stroke-linejoin="round"/>
</svg>
