<svg width="40" height="40" viewBox="0 0 40 40" fill="none" xmlns="http://www.w3.org/2000/svg">
<path d="M6.66683 36.6666H33.3335C34.2176 36.6666 35.0654 36.3154 35.6905 35.6903C36.3156 35.0652 36.6668 34.2173 36.6668 33.3333V6.66659C36.6668 5.78253 36.3156 4.93468 35.6905 4.30956C35.0654 3.68444 34.2176 3.33325 33.3335 3.33325H13.3335C12.4494 3.33325 11.6016 3.68444 10.9765 4.30956C10.3514 4.93468 10.0002 5.78253 10.0002 6.66659V33.3333C10.0002 34.2173 9.64897 35.0652 9.02385 35.6903C8.39873 36.3154 7.55088 36.6666 6.66683 36.6666ZM6.66683 36.6666C5.78277 36.6666 4.93493 36.3154 4.30981 35.6903C3.68469 35.0652 3.3335 34.2173 3.3335 33.3333V18.3333C3.3335 16.4999 4.8335 14.9999 6.66683 14.9999H10.0002" stroke="currentColor" stroke-width="3.33333" stroke-linecap="round" stroke-linejoin="round"/>
<path d="M29.9998 23.3333H16.6665" stroke="currentColor" stroke-width="3.33333" stroke-linecap="round" stroke-linejoin="round"/>
<path d="M24.9998 30H16.6665" stroke="currentColor" stroke-width="3.33333" stroke-linecap="round" stroke-linejoin="round"/>
<path d="M16.6665 10H29.9998V16.6667H16.6665V10Z" stroke="currentColor" stroke-width="3.33333" stroke-linecap="round" stroke-linejoin="round"/>
</svg>
