<?xml version="1.0" encoding="UTF-8"?>
<svg id="Camada_1" xmlns="http://www.w3.org/2000/svg" version="1.1" viewBox="0 0 3676 1577.5">
  <!-- Generator: Adobe Illustrator 29.0.1, SVG Export Plug-In . SVG Version: 2.1.0 Build 192)  -->
  <defs>
    <style>
      .st0 {
        fill: #2f2d30;
      }

      .st1 {
        fill: #e6761e;
      }
    </style>
  </defs>
  <g>
    <path class="st1" d="M240.6,303.1l-207.4-2.2v1243.4h1011.9v-428.5c0-445.6-358.8-808.2-804.5-812.8ZM301.1,1288.7v-728.6c111.8,0,481.2,287.1,481.2,708.5v20.1h-481.2Z"/>
    <path class="st1" d="M632.9,33.2h-193.1l4.4,184.5h0c416.5,0,754.2,337.7,754.2,754.2v301.9h255.1v-420c0-453.2-367.4-820.6-820.6-820.6Z"/>
  </g>
  <g>
    <g>
      <path class="st0" d="M1877.8,541.3h-147l-23.6,69.6h-100.5l142.6-394h111.1l142.6,394h-101.6l-23.6-69.6ZM1853.1,467.2l-48.8-144.2-48.3,144.2h97.1Z"/>
      <path class="st0" d="M2325.4,330c21.9,23.8,32.8,56.4,32.8,97.9v183h-95.4v-170c0-21-5.4-37.2-16.3-48.8-10.9-11.6-25.4-17.4-43.8-17.4s-32.9,5.8-43.8,17.4c-10.9,11.6-16.3,27.9-16.3,48.8v170h-96v-313.2h96v41.5c9.7-13.8,22.8-24.8,39.3-32.8,16.5-8,35-12.1,55.6-12.1,36.7,0,65.9,11.9,87.8,35.6Z"/>
      <path class="st0" d="M2602.6,306.7c16.6,9,29.5,20.8,38.4,35.4v-44.3h96v312.6c0,28.8-5.7,54.9-17.1,78.3-11.4,23.4-28.8,42-52.2,55.8-23.4,13.8-52.5,20.8-87.3,20.8s-84-10.9-112.8-32.8c-28.8-21.9-45.3-51.5-49.4-89h94.8c3,12,10.1,21.4,21.3,28.3,11.2,6.9,25.1,10.4,41.5,10.4s35.6-5.7,47.4-17.1c11.8-11.4,17.7-29.7,17.7-54.7v-44.3c-9.4,14.6-22.3,26.5-38.7,35.6-16.5,9.2-35.7,13.7-57.8,13.7s-49.2-6.6-70.2-19.9c-21-13.3-37.5-32.2-49.7-56.7-12.2-24.5-18.2-52.8-18.2-85s6.1-60.4,18.2-84.7c12.2-24.3,28.7-43,49.7-56.1,20.9-13.1,44.3-19.6,70.2-19.6s41.4,4.5,58.1,13.5ZM2621.2,397.6c-13.3-13.8-29.5-20.8-48.5-20.8s-35.3,6.8-48.5,20.5c-13.3,13.7-19.9,32.5-19.9,56.4s6.6,42.9,19.9,57c13.3,14,29.5,21,48.5,21s35.3-6.9,48.5-20.8c13.3-13.8,19.9-32.7,19.9-56.7s-6.6-42.8-19.9-56.7Z"/>
      <path class="st0" d="M2867,595.7c-24.5-13.1-43.8-31.8-57.8-56.1-14-24.3-21-52.8-21-85.3s7.1-60.5,21.3-85c14.2-24.5,33.7-43.3,58.4-56.4,24.7-13.1,52.4-19.6,83.1-19.6s58.4,6.5,83.1,19.6c24.7,13.1,44.1,31.9,58.4,56.4,14.2,24.5,21.3,52.9,21.3,85s-7.2,60.5-21.6,85c-14.4,24.5-34.1,43.3-58.9,56.4-24.9,13.1-52.7,19.6-83.3,19.6s-58.3-6.5-82.8-19.6ZM2996.6,512.1c12.9-13.5,19.4-32.7,19.4-57.8s-6.3-44.3-18.8-57.8c-12.5-13.5-28-20.2-46.3-20.2s-34.2,6.6-46.6,19.9c-12.3,13.3-18.5,32.6-18.5,58.1s6.1,44.3,18.2,57.8c12.2,13.5,27.4,20.2,45.7,20.2s34-6.7,46.9-20.2Z"/>
      <path class="st0" d="M3261.2,195.6v415.3h-96V195.6h96Z"/>
      <path class="st0" d="M3330.5,369c12.2-24.3,28.7-43,49.7-56.1,20.9-13.1,44.3-19.6,70.2-19.6s41.4,4.5,58.1,13.5c16.6,9,29.5,20.8,38.4,35.4v-44.3h96v313.2h-96v-44.3c-9.4,14.6-22.4,26.4-39,35.4-16.7,9-36,13.5-58.1,13.5s-48.6-6.6-69.6-19.9c-21-13.3-37.5-32.2-49.7-56.7-12.2-24.5-18.2-52.8-18.2-85s6.1-60.4,18.2-84.7ZM3527,397.6c-13.3-13.8-29.5-20.8-48.5-20.8s-35.3,6.8-48.5,20.5c-13.3,13.7-19.9,32.5-19.9,56.4s6.6,42.9,19.9,57c13.3,14,29.5,21,48.5,21s35.3-6.9,48.5-20.8c13.3-13.8,19.9-32.7,19.9-56.7s-6.6-42.8-19.9-56.7Z"/>
    </g>
    <g>
      <path class="st0" d="M2170.9,731.1v76.9h-104.4v317.1h-96v-317.1h-104.4v-76.9h304.7Z"/>
      <path class="st0" d="M2267.4,1109.9c-24.5-13.1-43.8-31.8-57.8-56.1-14-24.3-21-52.8-21-85.3s7.1-60.5,21.3-85c14.2-24.5,33.7-43.3,58.4-56.4,24.7-13.1,52.4-19.6,83.1-19.6s58.4,6.5,83.1,19.6c24.7,13.1,44.1,31.9,58.4,56.4,14.2,24.5,21.3,52.9,21.3,85s-7.2,60.5-21.6,85c-14.4,24.5-34.1,43.3-58.9,56.4-24.9,13.1-52.7,19.6-83.3,19.6s-58.3-6.5-82.8-19.6ZM2397.1,1026.3c12.9-13.5,19.4-32.7,19.4-57.8s-6.3-44.3-18.8-57.8c-12.5-13.5-28-20.2-46.3-20.2s-34.2,6.6-46.6,19.9c-12.3,13.3-18.5,32.6-18.5,58.1s6.1,44.3,18.2,57.8c12.2,13.5,27.4,20.2,45.7,20.2s34-6.7,46.9-20.2Z"/>
      <path class="st0" d="M2564.9,883.2c12.2-24.3,28.7-43,49.7-56.1,20.9-13.1,44.3-19.6,70.2-19.6s39.4,4.3,56.4,12.9c17,8.6,30.4,20.2,40.1,34.8v-145.4h96v415.3h-96v-44.9c-9,15-21.8,26.9-38.4,35.9-16.7,9-36,13.5-58.1,13.5s-49.2-6.6-70.2-19.9c-21-13.3-37.5-32.2-49.7-56.7-12.2-24.5-18.2-52.8-18.2-85s6.1-60.4,18.2-84.7ZM2761.3,911.8c-13.3-13.8-29.5-20.8-48.5-20.8s-35.3,6.8-48.5,20.5c-13.3,13.7-19.9,32.5-19.9,56.4s6.6,42.9,19.9,57c13.3,14,29.5,21,48.5,21s35.3-6.9,48.5-20.8c13.3-13.8,19.9-32.7,19.9-56.7s-6.6-42.8-19.9-56.7Z"/>
      <path class="st0" d="M2940.5,883.2c12.2-24.3,28.7-43,49.7-56.1,20.9-13.1,44.3-19.6,70.2-19.6s41.4,4.5,58.1,13.5c16.6,9,29.5,20.8,38.4,35.4v-44.3h96v313.2h-96v-44.3c-9.4,14.6-22.4,26.4-39,35.4-16.7,9-36,13.5-58.1,13.5s-48.6-6.6-69.6-19.9c-21-13.3-37.5-32.2-49.7-56.7-12.2-24.5-18.2-52.8-18.2-85s6.1-60.4,18.2-84.7ZM3136.9,911.8c-13.3-13.8-29.5-20.8-48.5-20.8s-35.3,6.8-48.5,20.5c-13.3,13.7-19.9,32.5-19.9,56.4s6.6,42.9,19.9,57c13.3,14,29.5,21,48.5,21s35.3-6.9,48.5-20.8c13.3-13.8,19.9-32.7,19.9-56.7s-6.6-42.8-19.9-56.7Z"/>
      <path class="st0" d="M3642.9,811.9l-196.4,461.9h-103.3l71.8-159.4-127.4-302.5h107.2l72.4,195.9,71.8-195.9h103.8Z"/>
    </g>
  </g>
</svg>