<svg width="40" height="40" viewBox="0 0 40 40">
    <path class="st1" fill="#e6761e" d="m1196 380.2-265.2-2.7v1589.6h1293.6v-547.8c0-569.7-458.8-1033.2-1028.5-1039.1Zm77.4 1260.1V708.8c143 0 615.2 367.1 615.2 905.8v25.7h-615.2Z"/>
    <path class="st1" fill="#e6761e" d="M1697.5 35.1h-246.8l5.6 235.9c532.5 0 964.2 431.7 964.2 964.2v386h326.1v-536.9c0-579.4-469.7-1049.1-1049.1-1049.1Z"/>
    <path  fill="#2f2d30" d="M513.7 2847.6H253.1L211.3 2971H33.2l252.7-698.5h197L735.6 2971H555.5l-41.8-123.4ZM470 2716.3l-86.6-255.7-85.6 255.7h172.1ZM1307.2 2473c38.8 42.1 58.2 100 58.2 173.6V2971h-169.1v-301.5c0-37.1-9.6-66-28.9-86.6-19.3-20.6-45.1-30.8-77.6-30.8s-58.4 10.3-77.6 30.8c-19.2 20.6-28.9 49.4-28.9 86.6V2971H813.2v-555.2h170.1v73.6c17.2-24.5 40.5-43.9 69.6-58.2 29.2-14.3 62-21.4 98.5-21.4 65 0 116.9 21.1 155.7 63.2ZM1798.7 2431.7c29.5 15.9 52.2 36.8 68.2 62.7v-78.6H2037V2970c0 51.1-10.1 97.3-30.4 138.8-20.2 41.4-51.1 74.4-92.5 99-41.5 24.5-93 36.8-154.7 36.8s-148.9-19.4-200-58.2c-51.1-38.8-80.3-91.4-87.6-157.7h168.1c5.3 21.2 17.9 38 37.8 50.2 19.9 12.3 44.4 18.4 73.6 18.4s63.2-10.1 84.1-30.3c20.9-20.2 31.3-52.6 31.3-97v-78.6c-16.6 25.9-39.5 46.9-68.7 63.2-29.2 16.3-63.4 24.4-102.5 24.4s-87.2-11.8-124.4-35.3c-37.2-23.5-66.5-57-88.1-100.5-21.6-43.4-32.3-93.7-32.3-150.7s10.8-107.1 32.3-150.2c21.5-43.1 50.9-76.3 88.1-99.5 37.1-23.2 78.6-34.8 124.4-34.8s73.5 8 103 23.9Zm32.9 161.2c-23.5-24.5-52.2-36.8-86.1-36.8s-62.5 12.1-86.1 36.3c-23.5 24.2-35.3 57.6-35.3 100s11.8 76.1 35.3 101c23.5 24.9 52.2 37.3 86.1 37.3s62.5-12.3 86.1-36.8c23.5-24.5 35.3-58 35.3-100.5s-11.8-75.9-35.3-100.5ZM2267.3 2944.1c-43.5-23.2-77.6-56.4-102.5-99.5-24.9-43.1-37.3-93.5-37.3-151.2s12.6-107.3 37.8-150.7c25.2-43.4 59.7-76.8 103.5-100 43.8-23.2 92.9-34.8 147.3-34.8s103.5 11.6 147.3 34.8c43.8 23.2 78.3 56.6 103.5 100 25.2 43.5 37.8 93.7 37.8 150.7s-12.8 107.3-38.3 150.7c-25.5 43.5-60.4 76.8-104.5 100-44.1 23.2-93.4 34.8-147.8 34.8s-103.3-11.6-146.8-34.8Zm229.9-148.2c22.9-23.9 34.3-58 34.3-102.5s-11.1-78.6-33.3-102.5c-22.2-23.9-49.6-35.8-82.1-35.8s-60.7 11.8-82.6 35.3c-21.9 23.5-32.8 57.9-32.8 103s10.8 78.6 32.3 102.5c21.5 23.9 48.6 35.8 81.1 35.8s60.2-11.9 83.1-35.8ZM2966.3 2234.7V2971h-170.1v-736.3h170.1ZM3089.2 2542.2c21.5-43.1 50.9-76.3 88.1-99.5 37.1-23.2 78.6-34.8 124.4-34.8s73.5 8 103 23.9c29.5 15.9 52.2 36.8 68.2 62.7v-78.6H3643v555.2h-170.1v-78.6c-16.6 25.9-39.6 46.8-69.2 62.7-29.5 15.9-63.8 23.9-103 23.9s-86.2-11.8-123.4-35.3c-37.2-23.5-66.5-57-88.1-100.5-21.6-43.4-32.3-93.7-32.3-150.7s10.8-107.1 32.3-150.2Zm348.2 50.7c-23.5-24.5-52.2-36.8-86.1-36.8s-62.5 12.1-86.1 36.3c-23.5 24.2-35.3 57.6-35.3 100s11.8 76.1 35.3 101c23.5 24.9 52.2 37.3 86.1 37.3s62.5-12.3 86.1-36.8c23.5-24.5 35.3-58 35.3-100.5s-11.8-75.9-35.3-100.5ZM1033.3 3184.1v136.3H848.2v562.2H678.1v-562.2H493v-136.3h540.3ZM1204.5 3855.7c-43.5-23.2-77.6-56.4-102.5-99.5-24.9-43.1-37.3-93.5-37.3-151.2s12.6-107.3 37.8-150.7c25.2-43.4 59.7-76.8 103.5-100 43.8-23.2 92.9-34.8 147.3-34.8s103.5 11.6 147.3 34.8c43.8 23.2 78.3 56.6 103.5 100 25.2 43.5 37.8 93.7 37.8 150.7s-12.8 107.3-38.3 150.7c-25.5 43.5-60.4 76.8-104.5 100-44.1 23.2-93.4 34.8-147.8 34.8s-103.3-11.6-146.8-34.8Zm229.8-148.3c22.9-23.9 34.3-58 34.3-102.5s-11.1-78.6-33.3-102.5c-22.2-23.9-49.6-35.8-82.1-35.8s-60.7 11.8-82.6 35.3c-21.9 23.5-32.8 57.9-32.8 103s10.8 78.6 32.3 102.5c21.5 23.9 48.6 35.8 81.1 35.8s60.2-11.9 83.1-35.8ZM1731.8 3453.7c21.5-43.1 50.9-76.3 88.1-99.5 37.1-23.2 78.6-34.8 124.4-34.8s69.8 7.6 100 22.9c30.2 15.3 53.9 35.8 71.1 61.7v-257.7h170.1v736.3h-170.1V3803c-15.9 26.5-38.6 47.8-68.2 63.7-29.5 15.9-63.8 23.9-103 23.9s-87.2-11.8-124.4-35.3c-37.2-23.5-66.5-57-88.1-100.5-21.6-43.4-32.3-93.7-32.3-150.7s10.8-107.1 32.3-150.2Zm348.2 50.7c-23.5-24.5-52.2-36.8-86.1-36.8s-62.5 12.1-86.1 36.3c-23.5 24.2-35.3 57.6-35.3 100s11.8 76.1 35.3 101c23.5 24.9 52.2 37.3 86.1 37.3s62.5-12.3 86.1-36.8c23.5-24.5 35.3-58 35.3-100.5s-11.8-75.9-35.3-100.5ZM2397.7 3453.7c21.5-43.1 50.9-76.3 88.1-99.5 37.1-23.2 78.6-34.8 124.4-34.8s73.5 8 103 23.9c29.5 15.9 52.2 36.8 68.2 62.7v-78.6h170.1v555.2h-170.1V3804c-16.6 25.9-39.6 46.8-69.2 62.7-29.5 15.9-63.8 23.9-103 23.9s-86.2-11.8-123.4-35.3c-37.2-23.5-66.5-57-88.1-100.5-21.6-43.4-32.3-93.7-32.3-150.7s10.8-107.1 32.3-150.2Zm348.2 50.7c-23.5-24.5-52.2-36.8-86.1-36.8s-62.5 12.1-86.1 36.3c-23.5 24.2-35.3 57.6-35.3 100s11.8 76.1 35.3 101c23.5 24.9 52.2 37.3 86.1 37.3s62.5-12.3 86.1-36.8c23.5-24.5 35.3-58 35.3-100.5s-11.8-75.9-35.3-100.5ZM3642.9 3327.3l-348.2 818.8h-183.1l127.4-282.6-225.9-536.3h190l128.3 347.2 127.4-347.2h184.1Z"/>
</svg>
