<?xml version="1.0" encoding="UTF-8"?>
<svg id="Camada_2" data-name="Camada 2" xmlns="http://www.w3.org/2000/svg" viewBox="0 0 360.9 436.89">
    <path fill="currentColor" d="M0,48.32C0,21.33,21.3,0,47.59,0h143.51c72.46,0,133.56,58.97,133.56,133.56,0,22.73-6.39,44.76-16.34,64.66,31.28,23.43,52.58,62.51,52.58,105.14,0,73.16-61.1,133.53-134.28,133.53H47.59c-26.27,0-47.59-21.28-47.59-47.57V48.32ZM97.32,113.45v57.08h74.97c15.89,0,28.95-17.07,28.95-36.97s-13.06-36.94-28.95-36.94h-58.13c-9.3,0-16.83,7.54-16.83,16.83ZM226.61,267.09H97.32v72.48h129.3c20.63,0,36.24-16.34,36.24-36.21s-15.64-36.24-36.24-36.24v-.03Z"/>
</svg>