<?xml version="1.0" encoding="UTF-8"?>
<svg id="Camada_3" data-name="Camada 3" xmlns="http://www.w3.org/2000/svg" viewBox="0 0 1412.99 347.46">
  <defs>
    <style>
      .cls-1 {
        fill: #fff;
      }

      .cls-2 {
        fill: #01312d;
      }
    </style>
  </defs>
  <g id="Camada_1" data-name="Camada 1">
    <g>
      <g>
        <path class="cls-2" d="M435.18,86.65h36.69v143.37h70.23v30.13h-106.92V86.65Z"/>
        <path class="cls-2" d="M634.43,86.65h30.13l78.97,173.5h-38.15l-16.28-37.66h-80.67l-16.28,37.66h-36.69l78.97-173.5ZM676.71,193.81l-27.7-64.64-28.19,64.64h55.89Z"/>
        <path class="cls-2" d="M765.65,86.65h60.02c11.82,0,21.99,1.94,30.5,5.83,8.5,3.89,15.02,9.2,19.56,15.92,4.53,6.72,6.8,14.46,6.8,23.21,0,7.78-2.27,14.62-6.8,20.53-4.54,5.92-10.69,10.49-18.47,13.73,10.53,3.24,18.91,8.63,25.15,16.16,6.23,7.53,9.35,16.65,9.35,27.34,0,9.72-2.51,18.39-7.53,26-5.02,7.62-12.07,13.65-21.14,18.1-9.07,4.46-19.85,6.68-32.32,6.68h-65.12V86.65ZM800.15,154.93h21.87c7.78,0,13.93-1.86,18.47-5.59,4.53-3.72,6.8-8.66,6.8-14.82s-2.27-11.34-6.8-15.07c-4.54-3.72-10.69-5.59-18.47-5.59h-21.87v41.07ZM800.15,232.93h27.22c8.91,0,15.92-2.43,21.02-7.29,5.1-4.86,7.65-11.01,7.65-18.47s-2.55-13.73-7.65-18.35c-5.1-4.62-12.11-6.93-21.02-6.93h-27.22v51.03Z"/>
        <path class="cls-2" d="M1036.34,86.65h36.21v96.71c0,17.98-3.24,32.97-9.72,44.95-6.48,11.99-15.59,20.94-27.34,26.85-11.75,5.91-25.39,8.87-40.95,8.87s-29.2-2.96-40.94-8.87c-11.75-5.91-20.94-14.86-27.58-26.85-6.64-11.99-9.96-26.97-9.96-44.95v-96.71h36.69v96.71c0,11.34,1.86,20.62,5.59,27.82,3.72,7.21,8.75,12.51,15.07,15.92,6.32,3.4,13.36,5.1,21.14,5.1s14.58-1.7,20.9-5.1c6.32-3.4,11.38-8.71,15.19-15.92,3.8-7.21,5.71-16.48,5.71-27.82v-96.71Z"/>
        <path class="cls-2" d="M1184.33,260.14h-36.94V116.78h-55.16v-30.13h147.26v30.13h-55.16v143.37Z"/>
        <path class="cls-2" d="M1303.88,86.65h30.13l78.97,173.5h-38.15l-16.28-37.66h-80.67l-16.28,37.66h-36.69l78.97-173.5ZM1346.16,193.81l-27.7-64.64-28.19,64.64h55.89Z"/>
      </g>
      <path class="cls-2" d="M296.09,332.03c-81.58,20.57-163.15,20.57-244.73,0-15.31-4.05-31.89-20.63-35.94-35.94C-5.14,214.52-5.14,132.94,15.43,51.37c4.05-15.31,20.63-31.89,35.94-35.94,81.58-20.57,163.15-20.57,244.73,0,15.31,4.05,31.89,20.63,35.94,35.94,20.57,81.58,20.57,163.15,0,244.73-4.05,15.31-20.63,31.89-35.94,35.94Z"/>
      <path class="cls-1" d="M229.07,248.85c-2.56,0-3.84-3.06-2.08-4.92,2.36-2.48,4.48-5.15,6.36-8,5.99-9.07,8.98-19.41,8.98-31,0-12.75-3.72-23.61-11.15-32.59-6.13-7.4-13.99-13.06-23.59-16.99-2.25-.92-2.41-4.04-.27-5.21,6.44-3.54,11.74-8.01,15.9-13.44,5.41-7.05,8.11-15.21,8.11-24.48,0-10.43-2.71-19.65-8.11-27.67-5.41-8.01-13.18-14.34-23.32-18.98-10.14-4.64-22.26-6.95-36.36-6.95h-71.95c-1.6,0-2.9,1.3-2.9,2.9v224.41c0,1.6,1.3,2.9,2.9,2.9h182.17c1.6,0,2.9-1.3,2.9-2.9v-34.19c0-1.6-1.3-2.9-2.9-2.9h-44.68ZM199.74,202.33c0,8.89-3.04,16.22-9.13,22.02-6.08,5.79-14.44,8.69-25.06,8.69h-25.29c-1.6,0-2.9-1.3-2.9-2.9v-55.05c0-1.6,1.3-2.9,2.9-2.9h25.29c10.62,0,18.98,2.75,25.06,8.26,6.08,5.5,9.13,12.8,9.13,21.87ZM159.18,91.08c9.27,0,16.61,2.23,22.02,6.66,5.41,4.44,8.11,10.43,8.11,17.96s-2.71,13.23-8.11,17.67c-5.41,4.44-12.75,6.66-22.02,6.66h-18.92c-1.6,0-2.9-1.3-2.9-2.9v-43.17c0-1.6,1.3-2.9,2.9-2.9h18.92Z"/>
    </g>
  </g>
</svg>