<svg width="40" height="40" viewBox="0 0 40 40" fill="none" xmlns="http://www.w3.org/2000/svg">
<path d="M10 3.33325L5 9.99992V33.3333C5 34.2173 5.35119 35.0652 5.97631 35.6903C6.60143 36.3154 7.44928 36.6666 8.33333 36.6666H31.6667C32.5507 36.6666 33.3986 36.3154 34.0237 35.6903C34.6488 35.0652 35 34.2173 35 33.3333V9.99992L30 3.33325H10Z" stroke="currentColor" stroke-width="3.33333" stroke-linecap="round" stroke-linejoin="round"/>
<path d="M5 10H35" stroke="currentColor" stroke-width="3.33333" stroke-linecap="round" stroke-linejoin="round"/>
<path d="M26.6668 16.6667C26.6668 18.4349 25.9645 20.1306 24.7142 21.3808C23.464 22.631 21.7683 23.3334 20.0002 23.3334C18.2321 23.3334 16.5364 22.631 15.2861 21.3808C14.0359 20.1306 13.3335 18.4349 13.3335 16.6667" stroke="currentColor" stroke-width="3.33333" stroke-linecap="round" stroke-linejoin="round"/>
</svg>
