<svg width="164" height="19" viewBox="0 0 164 19" fill="none" xmlns="http://www.w3.org/2000/svg">
<path d="M-0.0079999 18V1.2H8.2C10.312 1.2 11.896 1.6 12.952 2.4C14.024 3.2 14.56 4.256 14.56 5.568C14.56 6.448 14.344 7.216 13.912 7.872C13.48 8.512 12.888 9.008 12.136 9.36C11.384 9.712 10.52 9.888 9.544 9.888L10 8.904C11.056 8.904 11.992 9.08 12.808 9.432C13.624 9.768 14.256 10.272 14.704 10.944C15.168 11.616 15.4 12.44 15.4 13.416C15.4 14.856 14.832 15.984 13.696 16.8C12.56 17.6 10.888 18 8.68 18H-0.0079999ZM3.856 15.072H8.392C9.4 15.072 10.16 14.912 10.672 14.592C11.2 14.256 11.464 13.728 11.464 13.008C11.464 12.304 11.2 11.784 10.672 11.448C10.16 11.096 9.4 10.92 8.392 10.92H3.568V8.088H7.72C8.664 8.088 9.384 7.928 9.88 7.608C10.392 7.272 10.648 6.768 10.648 6.096C10.648 5.44 10.392 4.952 9.88 4.632C9.384 4.296 8.664 4.128 7.72 4.128H3.856V15.072ZM26.5036 18.288C25.1756 18.288 23.9436 18.072 22.8076 17.64C21.6876 17.208 20.7116 16.6 19.8796 15.816C19.0636 15.032 18.4236 14.112 17.9596 13.056C17.5116 12 17.2876 10.848 17.2876 9.6C17.2876 8.352 17.5116 7.2 17.9596 6.144C18.4236 5.088 19.0716 4.168 19.9036 3.384C20.7356 2.6 21.7116 1.992 22.8316 1.56C23.9516 1.128 25.1676 0.912 26.4796 0.912C27.8076 0.912 29.0236 1.128 30.1276 1.56C31.2476 1.992 32.2156 2.6 33.0316 3.384C33.8636 4.168 34.5116 5.088 34.9756 6.144C35.4396 7.184 35.6716 8.336 35.6716 9.6C35.6716 10.848 35.4396 12.008 34.9756 13.08C34.5116 14.136 33.8636 15.056 33.0316 15.84C32.2156 16.608 31.2476 17.208 30.1276 17.64C29.0236 18.072 27.8156 18.288 26.5036 18.288ZM26.4796 14.976C27.2316 14.976 27.9196 14.848 28.5436 14.592C29.1836 14.336 29.7436 13.968 30.2236 13.488C30.7036 13.008 31.0716 12.44 31.3276 11.784C31.5996 11.128 31.7356 10.4 31.7356 9.6C31.7356 8.8 31.5996 8.072 31.3276 7.416C31.0716 6.76 30.7036 6.192 30.2236 5.712C29.7596 5.232 29.2076 4.864 28.5676 4.608C27.9276 4.352 27.2316 4.224 26.4796 4.224C25.7276 4.224 25.0316 4.352 24.3916 4.608C23.7676 4.864 23.2156 5.232 22.7356 5.712C22.2556 6.192 21.8796 6.76 21.6076 7.416C21.3516 8.072 21.2236 8.8 21.2236 9.6C21.2236 10.384 21.3516 11.112 21.6076 11.784C21.8796 12.44 22.2476 13.008 22.7116 13.488C23.1916 13.968 23.7516 14.336 24.3916 14.592C25.0316 14.848 25.7276 14.976 26.4796 14.976ZM38.5936 18V1.2H42.4816V14.832H50.9056V18H38.5936ZM53.0779 18V1.2H60.7099C62.5339 1.2 64.1419 1.552 65.5339 2.256C66.9259 2.944 68.0139 3.912 68.7979 5.16C69.5819 6.408 69.9739 7.888 69.9739 9.6C69.9739 11.296 69.5819 12.776 68.7979 14.04C68.0139 15.288 66.9259 16.264 65.5339 16.968C64.1419 17.656 62.5339 18 60.7099 18H53.0779ZM56.9659 14.808H60.5179C61.6379 14.808 62.6059 14.6 63.4219 14.184C64.2539 13.752 64.8939 13.144 65.3419 12.36C65.8059 11.576 66.0379 10.656 66.0379 9.6C66.0379 8.528 65.8059 7.608 65.3419 6.84C64.8939 6.056 64.2539 5.456 63.4219 5.04C62.6059 4.608 61.6379 4.392 60.5179 4.392H56.9659V14.808ZM79.7029 18V1.2H82.9189L90.0709 13.056H88.3669L95.3989 1.2H98.5909L98.6389 18H94.9909L94.9669 6.792H95.6389L90.0229 16.224H88.2709L82.5349 6.792H83.3509V18H79.7029ZM106.201 7.968H114.289V10.992H106.201V7.968ZM106.489 14.88H115.633V18H102.625V1.2H115.321V4.32H106.489V14.88ZM118.726 18V1.2H126.358C128.182 1.2 129.79 1.552 131.182 2.256C132.574 2.944 133.662 3.912 134.446 5.16C135.23 6.408 135.622 7.888 135.622 9.6C135.622 11.296 135.23 12.776 134.446 14.04C133.662 15.288 132.574 16.264 131.182 16.968C129.79 17.656 128.182 18 126.358 18H118.726ZM122.614 14.808H126.166C127.286 14.808 128.254 14.6 129.07 14.184C129.902 13.752 130.542 13.144 130.99 12.36C131.454 11.576 131.686 10.656 131.686 9.6C131.686 8.528 131.454 7.608 130.99 6.84C130.542 6.056 129.902 5.456 129.07 5.04C128.254 4.608 127.286 4.392 126.166 4.392H122.614V14.808ZM138.555 18V1.2H142.443V18H138.555ZM144.221 18L151.71 1.2H155.55L163.062 18H158.982L152.838 3.168H154.374L148.206 18H144.221ZM147.965 14.4L148.998 11.448H157.638L158.694 14.4H147.965Z" fill="currentColor"/>
</svg>
